{"title":"Duel in the Sun - Duelo ao Sol (1946)","uid":7960495,"size":1462127763,"categoryP":"video","categoryS":"movies","magnet":"?xt=urn:btih:9920a96d5f19baf55ab4b30e78f284a6ce06ef46&amp;dn=Duel+in+the+Sun+-+Duelo+ao+Sol+%281946%29&amp;tr=udp%3A%2F%2Ftracker.openbittorrent.com%3A80&amp;tr=udp%3A%2F%2Fopen.demonii.com%3A1337&amp;tr=udp%3A%2F%2Ftracker.coppersurfer.tk%3A6969&amp;tr=udp%3A%2F%2Fexodus.desync.com%3A6969","seeders":0,"leechers":1,"uploader":"Farroba","files":-1,"time":1356564186,"description":"Format                                   : AVI\nFormat/Info                              : Audio Video Interleave\nFile size                                : 1.36 GiB\nDuration                                 : 2h 4mn\nOverall bit rate                         : 1 570 Kbps\nWriting library                          : Boilsoft Joiner build 2411/release\n\nVideo\nID                                       : 0\nFormat                                   : MPEG-4 Visual\nFormat profile                           : Advanced Simple@L5\nFormat settings, BVOP                    : 2\nFormat settings, QPel                    : No\nFormat settings, GMC                     : No warppoints\nFormat settings, Matrix                  : Default (H.263)\nMuxing mode                              : Packed bitstream\nCodec ID                                 : XVID\nCodec ID/Hint                            : XviD\nDuration                                 : 2h 4mn\nBit rate                                 : 1 400 Kbps\nWidth                                    : 640 pixels\nHeight                                   : 464 pixels\nDisplay aspect ratio                     : 1.379\nFrame rate                               : 25.000 fps\nColor space                              : YUV\nChroma subsampling                       : 4:2:0\nBit depth                                : 8 bits\nScan type                                : Progressive\nCompression mode                         : Lossy\nBits/(Pixel*Frame)                       : 0.189\nStream size                              : 1.21 GiB (89%)\nWriting library                          : XviD 1.2.1 (UTC 2008-12-04)\n\nAudio\nID                                       : 1\nFormat                                   : MPEG Audio\nFormat version                           : Version 1\nFormat profile                           : Layer 3\nMode                                     : Joint stereo\nMode extension                           : MS Stereo\nCodec ID                                 : 55\nCodec ID/Hint                            : MP3\nDuration                                 : 2h 4mn\nBit rate mode                            : Constant\nBit rate                                 : 160 Kbps\nChannel(s)                               : 2 channels\nSampling rate                            : 48.0 KHz\nCompression mode                         : Lossy\nStream size                              : 142 MiB (10%)\nAlignment                                : Aligned on interleaves\nInterleave, duration                     : 40 ms (1.00 video frame)\nInterleave, preload duration             : 480 ms\n\n","torrent":{"xt":"urn:btih:9920a96d5f19baf55ab4b30e78f284a6ce06ef46","amp;dn":"Duel+in+the+Sun+-+Duelo+ao+Sol+%281946%29","amp;tr":["udp%3A%2F%2Ftracker.openbittorrent.com%3A80","udp%3A%2F%2Fopen.demonii.com%3A1337","udp%3A%2F%2Ftracker.coppersurfer.tk%3A6969","udp%3A%2F%2Fexodus.desync.com%3A6969"],"infoHash":"9920a96d5f19baf55ab4b30e78f284a6ce06ef46","infoHashBuffer":{"type":"Buffer","data":[153,32,169,109,95,25,186,245,90,180,179,14,120,242,132,166,206,6,239,70]},"announce":[],"urlList":[]}}